<svg width="0" height="0" class="hidden">
    <symbol fill="none" xmlns="http://www.w3.org/2000/svg" viewBox="0 0 28 28" id="receive-square">
        <path d="M13.3833 17.5469C13.465 17.6285 13.5583 17.6869 13.6633 17.7335C13.7683 17.7802 13.885 17.8035 14.0017 17.8035C14.1183 17.8035 14.2233 17.7802 14.34 17.7335C14.445 17.6869 14.5383 17.6285 14.62 17.5469L18.12 14.0469C18.4583 13.7085 18.4583 13.1486 18.12 12.8102C17.7817 12.4719 17.2217 12.4719 16.8833 12.8102L14.8767 14.8169V7.59521C14.8767 7.11688 14.48 6.72021 14.0017 6.72021C13.5233 6.72021 13.1267 7.11688 13.1267 7.59521V14.8169L11.12 12.8102C10.7817 12.4719 10.2217 12.4719 9.88333 12.8102C9.54499 13.1486 9.54499 13.7085 9.88333 14.0469L13.3833 17.5469Z"
              fill="#4A517D"></path>
        <path d="M21.8291 18.9936C21.6775 18.5386 21.1875 18.2936 20.7208 18.4453C16.3808 19.892 11.6091 19.892 7.26914 18.4453C6.81414 18.2936 6.31247 18.5386 6.1608 18.9936C6.00913 19.4486 6.25413 19.9503 6.70913 20.102C9.05413 20.8836 11.5158 21.2803 13.9891 21.2803C16.4625 21.2803 18.9241 20.8836 21.2691 20.102C21.7358 19.9386 21.9808 19.4486 21.8291 18.9936Z"
              fill="#4A517D"></path>
    </symbol>

    <symbol fill="none" xmlns="http://www.w3.org/2000/svg" viewBox="0 0 17 16" id="search">
        <path fill-rule="evenodd" clip-rule="evenodd"
              d="M1.5 7.15C1.5 4.02959 4.02959 1.5 7.15 1.5C10.2704 1.5 12.8 4.02959 12.8 7.15C12.8 10.2704 10.2704 12.8 7.15 12.8C4.02959 12.8 1.5 10.2704 1.5 7.15ZM7.15 0C3.20116 0 0 3.20116 0 7.15C0 11.0988 3.20116 14.3 7.15 14.3C9.06838 14.3 10.8103 13.5445 12.0945 12.3148C12.1275 12.3741 12.1693 12.4299 12.2197 12.4803L15.4197 15.6803C15.7126 15.9732 16.1874 15.9732 16.4803 15.6803C16.7732 15.3874 16.7732 14.9126 16.4803 14.6197L13.2803 11.4197C13.2013 11.3407 13.1091 11.283 13.0108 11.2466C13.8233 10.0864 14.3 8.67389 14.3 7.15C14.3 3.20116 11.0988 0 7.15 0Z"
              fill="#1A1C20" fill-opacity="0.5"></path>
    </symbol>


    <symbol fill="none" xmlns="http://www.w3.org/2000/svg" viewBox="0 0 17 16" id="search">
        <path fill-rule="evenodd" clip-rule="evenodd"
              d="M1.5 7.15C1.5 4.02959 4.02959 1.5 7.15 1.5C10.2704 1.5 12.8 4.02959 12.8 7.15C12.8 10.2704 10.2704 12.8 7.15 12.8C4.02959 12.8 1.5 10.2704 1.5 7.15ZM7.15 0C3.20116 0 0 3.20116 0 7.15C0 11.0988 3.20116 14.3 7.15 14.3C9.06838 14.3 10.8103 13.5445 12.0945 12.3148C12.1275 12.3741 12.1693 12.4299 12.2197 12.4803L15.4197 15.6803C15.7126 15.9732 16.1874 15.9732 16.4803 15.6803C16.7732 15.3874 16.7732 14.9126 16.4803 14.6197L13.2803 11.4197C13.2013 11.3407 13.1091 11.283 13.0108 11.2466C13.8233 10.0864 14.3 8.67389 14.3 7.15C14.3 3.20116 11.0988 0 7.15 0Z"
              fill="#1A1C20" fill-opacity="0.5"></path>
    </symbol>

    <symbol fill="none" xmlns="http://www.w3.org/2000/svg" viewBox="0 0 14 14" id="arrow-left">
        <path d="M8.75154 11.6199L4.9482 7.81655C4.49904 7.36738 4.49904 6.63238 4.9482 6.18322L8.75154 2.37988"
              stroke="#292D32" stroke-width="1.5" stroke-miterlimit="10" stroke-linecap="round"
              stroke-linejoin="round"></path>
    </symbol>

    <symbol fill="none" xmlns="http://www.w3.org/2000/svg" viewBox="0 0 162 66" id="footerArrow">
        <g clip-path="url(#clip0_239_738)">
            <path d="M118.735 30.8081C118.735 13.7933 101.601 0 80.4643 0C59.3278 0 42.1934 13.7933 42.1934 30.8081C42.1934 47.823 59.3278 61.6163 80.4643 61.6163C101.601 61.6163 118.735 47.823 118.735 30.8081Z" fill="#21294D"></path>
            <path d="M115.648 17.7061C115.648 17.7061 118.846 30.1134 138.627 30.6924C158.408 31.2715 119.974 38.2132 119.974 38.2132L115.648 17.7061Z" fill="#21294D"></path>
            <path d="M53.371 9.75332C43.5521 17.1789 32.8897 30.3235 6.32968 30.6284C-20.2303 30.9333 45.3864 43.6958 45.3864 43.6958C45.3864 43.6958 63.19 2.32619 53.371 9.75332Z" fill="#21294D"></path>
            <path d="M108.37 9.75313C116.757 17.7988 128.851 30.3235 155.412 30.6284C181.973 30.9333 116.356 43.6958 116.356 43.6958C116.356 43.6958 99.9831 1.70826 108.37 9.75313Z" fill="#21294D"></path>
        </g>
        <circle cx="80.4816" cy="44.7292" r="21.0969" fill="#FEB703"></circle>
        <path d="M80.6116 41.6035C80.0836 41.6035 79.5556 41.7793 79.1559 42.1244L74.2383 46.3698C74.0195 46.5587 74.0195 46.8712 74.2383 47.06C74.457 47.2489 74.819 47.2489 75.0378 47.06L79.9554 42.8146C80.3174 42.5021 80.9057 42.5021 81.2677 42.8146L86.1853 47.06C86.4041 47.2489 86.7661 47.2489 86.9848 47.06C87.2036 46.8712 87.2036 46.5587 86.9848 46.3698L82.0672 42.1244C81.6675 41.7793 81.1395 41.6035 80.6116 41.6035Z" fill="#21294D"></path>
        <defs>
            <clipPath id="clip0_239_738">
                <rect width="161.743" height="61.6163" fill="white"></rect>
            </clipPath>
        </defs>
    </symbol>
</svg>