<svg width="0" height="0" class="hidden">
  <symbol fill="none" xmlns="http://www.w3.org/2000/svg" viewBox="0 0 28 28" id="receive-square">
    <path d="M13.3833 17.5469C13.465 17.6285 13.5583 17.6869 13.6633 17.7335C13.7683 17.7802 13.885 17.8035 14.0017 17.8035C14.1183 17.8035 14.2233 17.7802 14.34 17.7335C14.445 17.6869 14.5383 17.6285 14.62 17.5469L18.12 14.0469C18.4583 13.7085 18.4583 13.1486 18.12 12.8102C17.7817 12.4719 17.2217 12.4719 16.8833 12.8102L14.8767 14.8169V7.59521C14.8767 7.11688 14.48 6.72021 14.0017 6.72021C13.5233 6.72021 13.1267 7.11688 13.1267 7.59521V14.8169L11.12 12.8102C10.7817 12.4719 10.2217 12.4719 9.88333 12.8102C9.54499 13.1486 9.54499 13.7085 9.88333 14.0469L13.3833 17.5469Z" fill="#4A517D"></path>
    <path d="M21.8291 18.9936C21.6775 18.5386 21.1875 18.2936 20.7208 18.4453C16.3808 19.892 11.6091 19.892 7.26914 18.4453C6.81414 18.2936 6.31247 18.5386 6.1608 18.9936C6.00913 19.4486 6.25413 19.9503 6.70913 20.102C9.05413 20.8836 11.5158 21.2803 13.9891 21.2803C16.4625 21.2803 18.9241 20.8836 21.2691 20.102C21.7358 19.9386 21.9808 19.4486 21.8291 18.9936Z" fill="#4A517D"></path>
  </symbol>

  <symbol fill="none" xmlns="http://www.w3.org/2000/svg" viewBox="0 0 17 16" id="search">
    <path fill-rule="evenodd" clip-rule="evenodd" d="M1.5 7.15C1.5 4.02959 4.02959 1.5 7.15 1.5C10.2704 1.5 12.8 4.02959 12.8 7.15C12.8 10.2704 10.2704 12.8 7.15 12.8C4.02959 12.8 1.5 10.2704 1.5 7.15ZM7.15 0C3.20116 0 0 3.20116 0 7.15C0 11.0988 3.20116 14.3 7.15 14.3C9.06838 14.3 10.8103 13.5445 12.0945 12.3148C12.1275 12.3741 12.1693 12.4299 12.2197 12.4803L15.4197 15.6803C15.7126 15.9732 16.1874 15.9732 16.4803 15.6803C16.7732 15.3874 16.7732 14.9126 16.4803 14.6197L13.2803 11.4197C13.2013 11.3407 13.1091 11.283 13.0108 11.2466C13.8233 10.0864 14.3 8.67389 14.3 7.15C14.3 3.20116 11.0988 0 7.15 0Z" fill="#1A1C20" fill-opacity="0.5"></path>
  </symbol>

    <symbol fill="none" xmlns="http://www.w3.org/2000/svg" viewBox="0 0 18 18" id="calendar">
    <path d="M6 1.5V3.75" stroke="#4A517D" stroke-miterlimit="10" stroke-linecap="round" stroke-linejoin="round"></path>
    <path d="M12 1.5V3.75" stroke="#4A517D" stroke-miterlimit="10" stroke-linecap="round" stroke-linejoin="round"></path>
    <path d="M2.625 6.81738H15.375" stroke="#4A517D" stroke-miterlimit="10" stroke-linecap="round" stroke-linejoin="round"></path>
    <path d="M15.75 6.375V12.75C15.75 15 14.625 16.5 12 16.5H6C3.375 16.5 2.25 15 2.25 12.75V6.375C2.25 4.125 3.375 2.625 6 2.625H12C14.625 2.625 15.75 4.125 15.75 6.375Z" stroke="#4A517D" stroke-miterlimit="10" stroke-linecap="round" stroke-linejoin="round"></path>
    <path d="M11.771 10.2749H11.7778" stroke="#4A517D" stroke-width="1.5" stroke-linecap="round" stroke-linejoin="round"></path>
    <path d="M11.771 12.5249H11.7778" stroke="#4A517D" stroke-width="1.5" stroke-linecap="round" stroke-linejoin="round"></path>
    <path d="M8.99661 10.2749H9.00335" stroke="#4A517D" stroke-width="1.5" stroke-linecap="round" stroke-linejoin="round"></path>
    <path d="M8.99661 12.5249H9.00335" stroke="#4A517D" stroke-width="1.5" stroke-linecap="round" stroke-linejoin="round"></path>
    <path d="M6.22073 10.2749H6.22747" stroke="#4A517D" stroke-width="1.5" stroke-linecap="round" stroke-linejoin="round"></path>
    <path d="M6.22073 12.5249H6.22747" stroke="#4A517D" stroke-width="1.5" stroke-linecap="round" stroke-linejoin="round"></path>
    </symbol>
  
  <symbol fill="none" xmlns="http://www.w3.org/2000/svg" viewBox="0 0 18 18" id="clock">
    <path d="M16.5 9C16.5 13.14 13.14 16.5 9 16.5C4.86 16.5 1.5 13.14 1.5 9C1.5 4.86 4.86 1.5 9 1.5C13.14 1.5 16.5 4.86 16.5 9Z" stroke="#4A517D" stroke-linecap="round" stroke-linejoin="round"></path>
    <path d="M11.7825 11.3851L9.45753 9.99757C9.05253 9.75757 8.72253 9.18007 8.72253 8.70757V5.63257" stroke="#4A517D" stroke-linecap="round" stroke-linejoin="round"></path>
  </symbol>

  <symbol fill="none" xmlns="http://www.w3.org/2000/svg" viewBox="0 0 26 26" id="insta">
    <path d="M16.9039 12.9995C16.9039 13.7709 16.6752 14.5249 16.2466 15.1662C15.8181 15.8076 15.209 16.3075 14.4964 16.6026C13.7837 16.8978 12.9996 16.9751 12.2431 16.8246C11.4865 16.6741 10.7916 16.3027 10.2462 15.7572C9.70076 15.2118 9.32933 14.5169 9.17884 13.7604C9.02836 13.0038 9.10559 12.2197 9.40078 11.507C9.69596 10.7944 10.1958 10.1853 10.8372 9.75678C11.4785 9.32824 12.2326 9.09951 13.0039 9.09951C14.0379 9.10069 15.0292 9.51197 15.7603 10.2431C16.4915 10.9742 16.9027 11.9655 16.9039 12.9995ZM25.1914 7.63701V18.362C25.1894 20.1715 24.4696 21.9063 23.1901 23.1858C21.9107 24.4652 20.1759 25.185 18.3664 25.187H7.64141C5.83193 25.185 4.09716 24.4652 2.81767 23.1858C1.53817 21.9063 0.818456 20.1715 0.816406 18.362V7.63701C0.818456 5.82754 1.53817 4.09276 2.81767 2.81327C4.09716 1.53378 5.83193 0.814061 7.64141 0.812012H18.3664C20.1759 0.814061 21.9107 1.53378 23.1901 2.81327C24.4696 4.09276 25.1894 5.82754 25.1914 7.63701ZM18.8539 12.9995C18.8539 11.8425 18.5108 10.7115 17.868 9.74943C17.2252 8.7874 16.3116 8.03759 15.2426 7.59482C14.1737 7.15204 12.9974 7.03619 11.8626 7.26192C10.7278 7.48764 9.68547 8.0448 8.86733 8.86294C8.04919 9.68108 7.49204 10.7234 7.26631 11.8582C7.04059 12.993 7.15644 14.1693 7.59921 15.2382C8.04198 16.3072 8.79179 17.2208 9.75382 17.8636C10.7158 18.5064 11.8469 18.8495 13.0039 18.8495C14.5549 18.8478 16.0418 18.2309 17.1385 17.1341C18.2353 16.0374 18.8522 14.5505 18.8539 12.9995ZM20.8039 6.66201C20.8039 6.37276 20.7181 6.09 20.5574 5.84949C20.3967 5.60898 20.1683 5.42153 19.9011 5.31084C19.6338 5.20014 19.3398 5.17118 19.0561 5.22761C18.7724 5.28404 18.5118 5.42333 18.3073 5.62787C18.1027 5.8324 17.9634 6.09299 17.907 6.37669C17.8506 6.66039 17.8795 6.95445 17.9902 7.22169C18.1009 7.48892 18.2884 7.71733 18.5289 7.87804C18.7694 8.03874 19.0522 8.12451 19.3414 8.12451C19.7293 8.12451 20.1013 7.97043 20.3755 7.69616C20.6498 7.42188 20.8039 7.04989 20.8039 6.66201Z" fill="#4A517D"></path>
  </symbol>

  <symbol fill="none" xmlns="http://www.w3.org/2000/svg" viewBox="0 0 18 32" id="facebook">
    <path d="M16.2598 17.6833L17.1263 12.0368H11.7083V8.37266C11.7083 6.82789 12.4652 5.32213 14.8917 5.32213H17.3548V0.51477C17.3548 0.51477 15.1196 0.133301 12.9825 0.133301C8.5207 0.133301 5.60423 2.83771 5.60423 7.73343V12.0368H0.644531V17.6833H5.60423V31.3333H11.7083V17.6833H16.2598Z" fill="#4A517D"></path>
  </symbol>

  <symbol fill="none" xmlns="http://www.w3.org/2000/svg" viewBox="0 0 32 27" id="twitter">
    <path d="M30.8953 3.90942C30.4052 4.12682 29.9013 4.31029 29.3864 4.45925C29.996 3.76983 30.4607 2.95863 30.7445 2.07094C30.8081 1.87196 30.7421 1.65417 30.5786 1.52403C30.4153 1.3938 30.1883 1.3782 30.0084 1.48478C28.9149 2.13334 27.7352 2.59943 26.4981 2.87197C25.2521 1.65437 23.5596 0.961426 21.81 0.961426C18.1168 0.961426 15.1122 3.96599 15.1122 7.65906C15.1122 7.94992 15.1306 8.23918 15.167 8.52441C10.5841 8.12203 6.32352 5.86949 3.39777 2.28058C3.2935 2.15266 3.13287 2.08372 2.96841 2.0969C2.80386 2.10979 2.65601 2.20258 2.57288 2.3452C1.97947 3.36342 1.66576 4.52799 1.66576 5.71288C1.66576 7.32673 2.24196 8.85794 3.25978 10.0544C2.9503 9.94723 2.64997 9.81327 2.36334 9.65415C2.20945 9.5685 2.02165 9.56981 1.86877 9.65747C1.71578 9.74513 1.61987 9.90636 1.61584 10.0826C1.61514 10.1123 1.61514 10.142 1.61514 10.1721C1.61514 12.581 2.91165 14.7498 4.89386 15.9319C4.72357 15.9149 4.55337 15.8902 4.38429 15.8579C4.20997 15.8246 4.03072 15.8857 3.91317 16.0186C3.79542 16.1515 3.75647 16.3367 3.81071 16.5058C4.54442 18.7965 6.43343 20.4814 8.71706 20.995C6.82302 22.1813 4.65704 22.8027 2.38326 22.8027C1.90882 22.8027 1.43166 22.7749 0.96467 22.7196C0.732682 22.692 0.510861 22.829 0.431854 23.0496C0.352848 23.2703 0.436584 23.5164 0.63395 23.6429C3.55497 25.5158 6.93253 26.5058 10.4013 26.5058C17.2204 26.5058 21.4862 23.2902 23.864 20.5926C26.829 17.2289 28.5295 12.7767 28.5295 8.37756C28.5295 8.19379 28.5266 8.0082 28.521 7.82321C29.6908 6.94186 30.698 5.87522 31.5175 4.64927C31.642 4.46307 31.6285 4.21699 31.4843 4.0456C31.3403 3.8741 31.1002 3.81864 30.8953 3.90942Z" fill="#4A517D"></path>
  </symbol>

    <symbol fill="none" xmlns="http://www.w3.org/2000/svg" viewBox="0 0 17 16" id="search">
      <path fill-rule="evenodd" clip-rule="evenodd" d="M1.5 7.15C1.5 4.02959 4.02959 1.5 7.15 1.5C10.2704 1.5 12.8 4.02959 12.8 7.15C12.8 10.2704 10.2704 12.8 7.15 12.8C4.02959 12.8 1.5 10.2704 1.5 7.15ZM7.15 0C3.20116 0 0 3.20116 0 7.15C0 11.0988 3.20116 14.3 7.15 14.3C9.06838 14.3 10.8103 13.5445 12.0945 12.3148C12.1275 12.3741 12.1693 12.4299 12.2197 12.4803L15.4197 15.6803C15.7126 15.9732 16.1874 15.9732 16.4803 15.6803C16.7732 15.3874 16.7732 14.9126 16.4803 14.6197L13.2803 11.4197C13.2013 11.3407 13.1091 11.283 13.0108 11.2466C13.8233 10.0864 14.3 8.67389 14.3 7.15C14.3 3.20116 11.0988 0 7.15 0Z" fill="#1A1C20" fill-opacity="0.5"></path>
    </symbol>



    <symbol fill="none" xmlns="http://www.w3.org/2000/svg" viewBox="0 0 14 14" id="arrow-left">
       <path d="M8.75154 11.6199L4.9482 7.81655C4.49904 7.36738 4.49904 6.63238 4.9482 6.18322L8.75154 2.37988" stroke="#292D32" stroke-width="1.5" stroke-miterlimit="10" stroke-linecap="round" stroke-linejoin="round"></path>
    </symbol>



      <symbol fill="none" xmlns="http://www.w3.org/2000/svg" viewBox="0 0 31 31" id="instagram">
    <path d="M15.5026 8.02371C11.3643 8.02371 8.02631 11.3617 8.02631 15.5C8.02631 19.6383 11.3643 22.9763 15.5026 22.9763C19.6409 22.9763 22.9789 19.6383 22.9789 15.5C22.9789 11.3617 19.6409 8.02371 15.5026 8.02371ZM15.5026 20.3606C12.8283 20.3606 10.642 18.1808 10.642 15.5C10.642 12.8192 12.8218 10.6394 15.5026 10.6394C18.1834 10.6394 20.3632 12.8192 20.3632 15.5C20.3632 18.1808 18.1769 20.3606 15.5026 20.3606V20.3606ZM25.0285 7.71789C25.0285 8.6874 24.2477 9.46171 23.2847 9.46171C22.3152 9.46171 21.5409 8.68089 21.5409 7.71789C21.5409 6.75488 22.3217 5.97407 23.2847 5.97407C24.2477 5.97407 25.0285 6.75488 25.0285 7.71789ZM29.9802 9.48773C29.8696 7.1518 29.336 5.08264 27.6247 3.37786C25.92 1.67308 23.8508 1.13953 21.5149 1.0224C19.1074 0.885761 11.8913 0.885761 9.48383 1.0224C7.1544 1.13302 5.08524 1.66658 3.37395 3.37135C1.66267 5.07613 1.13562 7.14529 1.0185 9.48123C0.881855 11.8887 0.881855 19.1048 1.0185 21.5123C1.12911 23.8482 1.66267 25.9174 3.37395 27.6221C5.08524 29.3269 7.14789 29.8605 9.48383 29.9776C11.8913 30.1142 19.1074 30.1142 21.5149 29.9776C23.8508 29.867 25.92 29.3334 27.6247 27.6221C29.3295 25.9174 29.8631 23.8482 29.9802 21.5123C30.1168 19.1048 30.1168 11.8952 29.9802 9.48773V9.48773ZM26.87 24.0955C26.3624 25.3708 25.3799 26.3533 24.0981 26.8674C22.1786 27.6287 17.6238 27.453 15.5026 27.453C13.3814 27.453 8.82013 27.6221 6.90714 26.8674C5.63181 26.3598 4.64928 25.3773 4.13525 24.0955C3.37395 22.176 3.54964 17.6212 3.54964 15.5C3.54964 13.3788 3.38046 8.81753 4.13525 6.90454C4.64278 5.62921 5.6253 4.64668 6.90714 4.13265C8.82664 3.37135 13.3814 3.54704 15.5026 3.54704C17.6238 3.54704 22.1851 3.37786 24.0981 4.13265C25.3734 4.64018 26.3559 5.6227 26.87 6.90454C27.6313 8.82404 27.4556 13.3788 27.4556 15.5C27.4556 17.6212 27.6313 22.1825 26.87 24.0955Z" fill="#D1D1D1"></path>
  </symbol>
  <symbol fill="none" xmlns="http://www.w3.org/2000/svg" viewBox="0 0 31 31" id="whatsapp">
    <path d="M25.7142 5.15479C22.9863 2.42041 19.3535 0.916504 15.4928 0.916504C7.52409 0.916504 1.03971 7.40088 1.03971 15.3696C1.03971 17.9152 1.70378 20.4022 2.9668 22.5962L0.916016 30.0832L8.57878 28.0715C10.6882 29.2238 13.0645 29.8293 15.4863 29.8293H15.4928C23.4551 29.8293 30.0827 23.3449 30.0827 15.3761C30.0827 11.5155 28.4421 7.88916 25.7142 5.15479V5.15479ZM15.4928 27.3944C13.3314 27.3944 11.2155 26.8149 9.37305 25.7212L8.93685 25.4608L4.39258 26.6522L5.60352 22.2186L5.31706 21.7629C4.11263 19.8488 3.48112 17.6418 3.48112 15.3696C3.48112 8.74854 8.87175 3.35791 15.4994 3.35791C18.709 3.35791 21.7233 4.60791 23.9889 6.88005C26.2546 9.15218 27.6478 12.1665 27.6413 15.3761C27.6413 22.0037 22.1139 27.3944 15.4928 27.3944V27.3944ZM22.0814 18.397C21.7233 18.2147 19.946 17.3423 19.6139 17.2251C19.2819 17.1014 19.041 17.0428 18.8001 17.4074C18.5592 17.772 17.8691 18.5793 17.6543 18.8267C17.446 19.0675 17.2311 19.1001 16.873 18.9178C14.7507 17.8566 13.3574 17.0233 11.9577 14.6209C11.5866 13.9829 12.3288 14.0285 13.0189 12.6483C13.1361 12.4074 13.0775 12.1991 12.9863 12.0168C12.8952 11.8345 12.1725 10.0571 11.873 9.33447C11.5801 8.63135 11.2806 8.729 11.0592 8.71598C10.8509 8.70296 10.61 8.70296 10.3691 8.70296C10.1283 8.70296 9.73763 8.79411 9.4056 9.15218C9.07357 9.51676 8.14258 10.3892 8.14258 12.1665C8.14258 13.9438 9.43815 15.6626 9.61393 15.9035C9.79623 16.1444 12.1595 19.7902 15.7858 21.3592C18.0775 22.3488 18.9759 22.4334 20.1217 22.2642C20.8184 22.16 22.2572 21.3918 22.5566 20.5454C22.8561 19.6991 22.8561 18.9764 22.765 18.8267C22.6803 18.6639 22.4395 18.5728 22.0814 18.397Z" fill="#D1D1D1"></path>
  </symbol>
  <symbol fill="none" xmlns="http://www.w3.org/2000/svg" viewBox="0 0 31 25" id="twitter">
    <path d="M27.0847 6.71859C27.1032 6.97768 27.1032 7.23682 27.1032 7.4959C27.1032 15.3983 21.0885 24.5037 10.0954 24.5037C6.70864 24.5037 3.5625 23.5228 0.916016 21.8202C1.39721 21.8757 1.85983 21.8942 2.35954 21.8942C5.15403 21.8942 7.72652 20.9504 9.78078 19.3403C7.15281 19.2847 4.95049 17.5636 4.1917 15.1947C4.56186 15.2502 4.93197 15.2872 5.32066 15.2872C5.85734 15.2872 6.39407 15.2132 6.89373 15.0837C4.15472 14.5285 2.1004 12.1226 2.1004 9.21702V9.14302C2.89617 9.58719 3.82159 9.86479 4.80238 9.90176C3.19228 8.82834 2.13743 6.99619 2.13743 4.92341C2.13743 3.81302 2.43349 2.79515 2.95171 1.90682C5.89431 5.53415 10.3175 7.90298 15.2772 8.16212C15.1847 7.71795 15.1292 7.25533 15.1292 6.79265C15.1292 3.4984 17.7942 0.814941 21.1069 0.814941C22.828 0.814941 24.3826 1.53671 25.4745 2.70264C26.8255 2.44355 28.1209 1.94384 29.2684 1.25911C28.8242 2.64715 27.8804 3.81308 26.6404 4.5533C27.8434 4.42382 29.0093 4.09062 30.0827 3.628C29.2685 4.81238 28.2506 5.86723 27.0847 6.71859V6.71859Z" fill="#D1D1D1"></path>
  </symbol>
  <symbol fill="none" xmlns="http://www.w3.org/2000/svg" viewBox="0 0 31 30" id="linkedin">
    <path d="M27.9994 0.0756836H2.99284C1.84701 0.0756836 0.916016 1.01969 0.916016 2.17855V27.1395C0.916016 28.2983 1.84701 29.2424 2.99284 29.2424H27.9994C29.1452 29.2424 30.0827 28.2983 30.0827 27.1395V2.17855C30.0827 1.01969 29.1452 0.0756836 27.9994 0.0756836ZM9.73112 25.0757H5.4082V11.1564H9.73763V25.0757H9.73112ZM7.56966 9.25537C6.18294 9.25537 5.06315 8.12907 5.06315 6.74886C5.06315 5.36865 6.18294 4.24235 7.56966 4.24235C8.94987 4.24235 10.0762 5.36865 10.0762 6.74886C10.0762 8.13558 8.95638 9.25537 7.56966 9.25537V9.25537ZM25.9355 25.0757H21.6126V18.3049C21.6126 16.6903 21.5801 14.6134 19.3665 14.6134C17.1139 14.6134 16.7689 16.3713 16.7689 18.1877V25.0757H12.446V11.1564H16.5931V13.0575H16.6517C17.2311 11.9637 18.6439 10.8114 20.7467 10.8114C25.1217 10.8114 25.9355 13.6955 25.9355 17.4455V25.0757V25.0757Z" fill="#D1D1D1"></path>
  </symbol>



    <symbol fill="none" xmlns="http://www.w3.org/2000/svg" viewBox="0 0 31 261" id="socials">
    <path d="M15.5026 8.02371C11.3643 8.02371 8.02631 11.3617 8.02631 15.5C8.02631 19.6383 11.3643 22.9763 15.5026 22.9763C19.6409 22.9763 22.9789 19.6383 22.9789 15.5C22.9789 11.3617 19.6409 8.02371 15.5026 8.02371ZM15.5026 20.3606C12.8283 20.3606 10.642 18.1808 10.642 15.5C10.642 12.8192 12.8218 10.6394 15.5026 10.6394C18.1834 10.6394 20.3632 12.8192 20.3632 15.5C20.3632 18.1808 18.1769 20.3606 15.5026 20.3606V20.3606ZM25.0285 7.71789C25.0285 8.6874 24.2477 9.46171 23.2847 9.46171C22.3152 9.46171 21.5409 8.68089 21.5409 7.71789C21.5409 6.75488 22.3217 5.97407 23.2847 5.97407C24.2477 5.97407 25.0285 6.75488 25.0285 7.71789ZM29.9802 9.48773C29.8696 7.1518 29.336 5.08264 27.6247 3.37786C25.92 1.67308 23.8508 1.13953 21.5149 1.0224C19.1074 0.885761 11.8913 0.885761 9.48383 1.0224C7.1544 1.13302 5.08524 1.66658 3.37395 3.37135C1.66267 5.07613 1.13562 7.14529 1.0185 9.48123C0.881855 11.8887 0.881855 19.1048 1.0185 21.5123C1.12911 23.8482 1.66267 25.9174 3.37395 27.6221C5.08524 29.3269 7.14789 29.8605 9.48383 29.9776C11.8913 30.1142 19.1074 30.1142 21.5149 29.9776C23.8508 29.867 25.92 29.3334 27.6247 27.6221C29.3295 25.9174 29.8631 23.8482 29.9802 21.5123C30.1168 19.1048 30.1168 11.8952 29.9802 9.48773V9.48773ZM26.87 24.0955C26.3624 25.3708 25.3799 26.3533 24.0981 26.8674C22.1786 27.6287 17.6238 27.453 15.5026 27.453C13.3814 27.453 8.82013 27.6221 6.90714 26.8674C5.63181 26.3598 4.64928 25.3773 4.13525 24.0955C3.37395 22.176 3.54964 17.6212 3.54964 15.5C3.54964 13.3788 3.38046 8.81753 4.13525 6.90454C4.64278 5.62921 5.6253 4.64668 6.90714 4.13265C8.82664 3.37135 13.3814 3.54704 15.5026 3.54704C17.6238 3.54704 22.1851 3.37786 24.0981 4.13265C25.3734 4.64018 26.3559 5.6227 26.87 6.90454C27.6313 8.82404 27.4556 13.3788 27.4556 15.5C27.4556 17.6212 27.6313 22.1825 26.87 24.0955Z" fill="#D1D1D1"></path>
    <path d="M25.7142 65.1548C22.9863 62.4204 19.3535 60.9165 15.4928 60.9165C7.52409 60.9165 1.03971 67.4009 1.03971 75.3696C1.03971 77.9152 1.70378 80.4022 2.9668 82.5962L0.916016 90.0832L8.57878 88.0715C10.6882 89.2238 13.0645 89.8293 15.4863 89.8293H15.4928C23.4551 89.8293 30.0827 83.3449 30.0827 75.3761C30.0827 71.5155 28.4421 67.8892 25.7142 65.1548V65.1548ZM15.4928 87.3944C13.3314 87.3944 11.2155 86.8149 9.37305 85.7212L8.93685 85.4608L4.39258 86.6522L5.60352 82.2186L5.31706 81.7629C4.11263 79.8488 3.48112 77.6418 3.48112 75.3696C3.48112 68.7485 8.87175 63.3579 15.4994 63.3579C18.709 63.3579 21.7233 64.6079 23.9889 66.88C26.2546 69.1522 27.6478 72.1665 27.6413 75.3761C27.6413 82.0037 22.1139 87.3944 15.4928 87.3944V87.3944ZM22.0814 78.397C21.7233 78.2147 19.946 77.3423 19.6139 77.2251C19.2819 77.1014 19.041 77.0428 18.8001 77.4074C18.5592 77.772 17.8691 78.5793 17.6543 78.8267C17.446 79.0675 17.2311 79.1001 16.873 78.9178C14.7507 77.8566 13.3574 77.0233 11.9577 74.6209C11.5866 73.9829 12.3288 74.0285 13.0189 72.6483C13.1361 72.4074 13.0775 72.1991 12.9863 72.0168C12.8952 71.8345 12.1725 70.0571 11.873 69.3345C11.5801 68.6313 11.2806 68.729 11.0592 68.716C10.8509 68.703 10.61 68.703 10.3691 68.703C10.1283 68.703 9.73763 68.7941 9.4056 69.1522C9.07357 69.5168 8.14258 70.3892 8.14258 72.1665C8.14258 73.9438 9.43815 75.6626 9.61393 75.9035C9.79623 76.1444 12.1595 79.7902 15.7858 81.3592C18.0775 82.3488 18.9759 82.4334 20.1217 82.2642C20.8184 82.16 22.2572 81.3918 22.5566 80.5454C22.8561 79.6991 22.8561 78.9764 22.765 78.8267C22.6803 78.6639 22.4395 78.5728 22.0814 78.397Z" fill="#D1D1D1"></path>
    <path d="M30.9145 120.29L26.3873 141.641C26.0458 143.147 25.1551 143.522 23.8893 142.813L16.9914 137.729L13.663 140.931C13.2946 141.299 12.9866 141.607 12.2767 141.607L12.7723 134.582L25.5569 123.03C26.1128 122.534 25.4364 122.259 24.693 122.755L8.888 132.707L2.08382 130.577C0.603782 130.115 0.576994 129.097 2.39189 128.387L29.0059 118.134C30.2381 117.672 31.3163 118.409 30.9145 120.29V120.29Z" fill="#D1D1D1"></path>
    <path d="M27.0847 179.719C27.1032 179.978 27.1032 180.237 27.1032 180.496C27.1032 188.398 21.0885 197.504 10.0954 197.504C6.70864 197.504 3.5625 196.523 0.916016 194.82C1.39721 194.876 1.85983 194.894 2.35954 194.894C5.15403 194.894 7.72652 193.95 9.78078 192.34C7.15281 192.285 4.95049 190.564 4.1917 188.195C4.56186 188.25 4.93197 188.287 5.32066 188.287C5.85734 188.287 6.39407 188.213 6.89373 188.084C4.15472 187.528 2.1004 185.123 2.1004 182.217V182.143C2.89617 182.587 3.82159 182.865 4.80238 182.902C3.19228 181.828 2.13743 179.996 2.13743 177.923C2.13743 176.813 2.43349 175.795 2.95171 174.907C5.89431 178.534 10.3175 180.903 15.2772 181.162C15.1847 180.718 15.1292 180.255 15.1292 179.793C15.1292 176.498 17.7942 173.815 21.1069 173.815C22.828 173.815 24.3826 174.537 25.4745 175.703C26.8255 175.444 28.1209 174.944 29.2684 174.259C28.8242 175.647 27.8804 176.813 26.6404 177.553C27.8434 177.424 29.0093 177.091 30.0827 176.628C29.2685 177.812 28.2506 178.867 27.0847 179.719V179.719Z" fill="#D1D1D1"></path>
    <path d="M27.9994 231.076H2.99284C1.84701 231.076 0.916016 232.02 0.916016 233.179V258.139C0.916016 259.298 1.84701 260.242 2.99284 260.242H27.9994C29.1452 260.242 30.0827 259.298 30.0827 258.139V233.179C30.0827 232.02 29.1452 231.076 27.9994 231.076ZM9.73112 256.076H5.4082V242.156H9.73763V256.076H9.73112ZM7.56966 240.255C6.18294 240.255 5.06315 239.129 5.06315 237.749C5.06315 236.369 6.18294 235.242 7.56966 235.242C8.94987 235.242 10.0762 236.369 10.0762 237.749C10.0762 239.136 8.95638 240.255 7.56966 240.255V240.255ZM25.9355 256.076H21.6126V249.305C21.6126 247.69 21.5801 245.613 19.3665 245.613C17.1139 245.613 16.7689 247.371 16.7689 249.188V256.076H12.446V242.156H16.5931V244.057H16.6517C17.2311 242.964 18.6439 241.811 20.7467 241.811C25.1217 241.811 25.9355 244.695 25.9355 248.445V256.076V256.076Z" fill="#D1D1D1"></path>
  </symbol>
  <symbol fill="none" xmlns="http://www.w3.org/2000/svg" viewBox="0 0 32 33" id="instagram-logo-fill-svgrepo-com 1">
    <path d="M19.9039 16.4932C19.9039 17.2645 19.6752 18.0185 19.2466 18.6599C18.8181 19.3012 18.209 19.8011 17.4964 20.0963C16.7837 20.3915 15.9996 20.4687 15.2431 20.3182C14.4865 20.1677 13.7916 19.7963 13.2462 19.2509C12.7008 18.7055 12.3293 18.0105 12.1788 17.254C12.0284 16.4975 12.1056 15.7133 12.4008 15.0007C12.696 14.2881 13.1958 13.679 13.8372 13.2504C14.4785 12.8219 15.2326 12.5932 16.0039 12.5932C17.0379 12.5943 18.0292 13.0056 18.7603 13.7368C19.4915 14.4679 19.9027 15.4592 19.9039 16.4932ZM28.1914 11.1307V21.8557C28.1894 23.6651 27.4696 25.3999 26.1901 26.6794C24.9107 27.9589 23.1759 28.6786 21.3664 28.6807H10.6414C8.83193 28.6786 7.09716 27.9589 5.81767 26.6794C4.53817 25.3999 3.81846 23.6651 3.81641 21.8557V11.1307C3.81846 9.32119 4.53817 7.58642 5.81767 6.30692C7.09716 5.02743 8.83193 4.30771 10.6414 4.30566H21.3664C23.1759 4.30771 24.9107 5.02743 26.1901 6.30692C27.4696 7.58642 28.1894 9.32119 28.1914 11.1307ZM21.8539 16.4932C21.8539 15.3361 21.5108 14.2051 20.868 13.2431C20.2252 12.2811 19.3116 11.5312 18.2426 11.0885C17.1737 10.6457 15.9974 10.5298 14.8626 10.7556C13.7278 10.9813 12.6855 11.5385 11.8673 12.3566C11.0492 13.1747 10.492 14.2171 10.2663 15.3519C10.0406 16.4867 10.1564 17.6629 10.5992 18.7319C11.042 19.8008 11.7918 20.7145 12.7538 21.3573C13.7158 22.0001 14.8469 22.3432 16.0039 22.3432C17.5549 22.3414 19.0418 21.7245 20.1385 20.6278C21.2353 19.5311 21.8522 18.0441 21.8539 16.4932ZM23.8039 10.1557C23.8039 9.86641 23.7181 9.58365 23.5574 9.34314C23.3967 9.10264 23.1683 8.91518 22.9011 8.80449C22.6338 8.6938 22.3398 8.66483 22.0561 8.72127C21.7724 8.7777 21.5118 8.91699 21.3073 9.12152C21.1027 9.32605 20.9634 9.58665 20.907 9.87034C20.8506 10.154 20.8795 10.4481 20.9902 10.7153C21.1009 10.9826 21.2884 11.211 21.5289 11.3717C21.7694 11.5324 22.0522 11.6182 22.3414 11.6182C22.7293 11.6182 23.1013 11.4641 23.3755 11.1898C23.6498 10.9155 23.8039 10.5435 23.8039 10.1557Z" fill="#4A517D"></path>
  </symbol>
  <symbol fill="none" xmlns="http://www.w3.org/2000/svg" viewBox="0 0 32 32" id="facebook-f">
    <g clip-path="url(#clip0_64_403)">
      <path d="M23.2598 18.177L24.1263 12.5305H18.7083V8.86631C18.7083 7.32155 19.4652 5.81578 21.8917 5.81578H24.3548V1.00842C24.3548 1.00842 22.1196 0.626953 19.9825 0.626953C15.5207 0.626953 12.6042 3.33136 12.6042 8.22708V12.5305H7.64453V18.177H12.6042V31.827H18.7083V18.177H23.2598Z" fill="#4A517D"></path>
    </g>
    <defs>
      <clipPath id="clip0_64_403">
        <rect width="31.2" height="31.2" fill="white" transform="translate(0.402344 0.626953)"></rect>
      </clipPath>
    </defs>
  </symbol>
  <symbol fill="none" xmlns="http://www.w3.org/2000/svg" viewBox="0 0 32 32" id="twitter-svgrepo-com 1">
    <g clip-path="url(#clip0_64_390)">
      <path d="M30.8953 6.40308C30.4052 6.62047 29.9013 6.80395 29.3864 6.9529C29.996 6.26348 30.4607 5.45228 30.7445 4.56459C30.8081 4.36561 30.7421 4.14782 30.5786 4.01768C30.4153 3.88745 30.1883 3.87185 30.0084 3.97843C28.9149 4.62699 27.7352 5.09308 26.4981 5.36563C25.2521 4.14802 23.5596 3.45508 21.81 3.45508C18.1168 3.45508 15.1122 6.45964 15.1122 10.1527C15.1122 10.4436 15.1306 10.7328 15.167 11.0181C10.5841 10.6157 6.32352 8.36314 3.39777 4.77423C3.2935 4.64631 3.13287 4.57737 2.96841 4.59056C2.80386 4.60344 2.65601 4.69623 2.57288 4.83885C1.97947 5.85708 1.66576 7.02164 1.66576 8.20654C1.66576 9.82038 2.24196 11.3516 3.25978 12.5481C2.9503 12.4409 2.64997 12.3069 2.36334 12.1478C2.20945 12.0622 2.02165 12.0635 1.86877 12.1511C1.71578 12.2388 1.61987 12.4 1.61584 12.5762C1.61514 12.6059 1.61514 12.6356 1.61514 12.6657C1.61514 15.0747 2.91165 17.2435 4.89386 18.4255C4.72357 18.4085 4.55337 18.3839 4.38429 18.3516C4.20997 18.3183 4.03072 18.3793 3.91317 18.5123C3.79542 18.6451 3.75647 18.8303 3.81071 18.9994C4.54442 21.2901 6.43343 22.975 8.71706 23.4887C6.82302 24.675 4.65704 25.2964 2.38326 25.2964C1.90882 25.2964 1.43166 25.2685 0.96467 25.2133C0.732683 25.1857 0.510861 25.3227 0.431854 25.5433C0.352848 25.764 0.436584 26.0101 0.63395 26.1366C3.55497 28.0095 6.93253 28.9994 10.4013 28.9994C17.2204 28.9994 21.4862 25.7838 23.864 23.0862C26.829 19.7226 28.5295 15.2703 28.5295 10.8712C28.5295 10.6874 28.5266 10.5018 28.521 10.3169C29.6908 9.43551 30.698 8.36888 31.5175 7.14292C31.642 6.95672 31.6285 6.71065 31.4843 6.53925C31.3403 6.36775 31.1002 6.31229 30.8953 6.40308Z" fill="#4A517D"></path>
    </g>
    <defs>
      <clipPath id="clip0_64_390">
        <rect width="31.2" height="31.2" fill="white" transform="translate(0.402344 0.626953)"></rect>
      </clipPath>
    </defs>
  </symbol>

    <symbol xmlns="http://www.w3.org/2000/svg" viewBox="0 0 496 512" id="telegram">
    <path d="M248,8C111.033,8,0,119.033,0,256S111.033,504,248,504,496,392.967,496,256,384.967,8,248,8ZM362.952,176.66c-3.732,39.215-19.881,134.378-28.1,178.3-3.476,18.584-10.322,24.816-16.948,25.425-14.4,1.326-25.338-9.517-39.287-18.661-21.827-14.308-34.158-23.215-55.346-37.177-24.485-16.135-8.612-25,5.342-39.5,3.652-3.793,67.107-61.51,68.335-66.746.153-.655.3-3.1-1.154-4.384s-3.59-.849-5.135-.5q-3.283.746-104.608,69.142-14.845,10.194-26.894,9.934c-8.855-.191-25.888-5.006-38.551-9.123-15.531-5.048-27.875-7.717-26.8-16.291q.84-6.7,18.45-13.7,108.446-47.248,144.628-62.3c68.872-28.647,83.183-33.623,92.511-33.789,2.052-.034,6.639.474,9.61,2.885a10.452,10.452,0,0,1,3.53,6.716A43.765,43.765,0,0,1,362.952,176.66Z"></path>
  </symbol>

</svg>